<?xml version="1.0" encoding="UTF-8"?>
<svg id="Capa_2" data-name="Capa 2" xmlns="http://www.w3.org/2000/svg" viewBox="0 0 174.53 239.56">
  <defs>
    <style>
      .cls-1 {
        fill: #654c43;
        stroke-width: 0px;
      }
    </style>
  </defs>
  <g id="Layer_1" data-name="Layer 1">
    <g>
      <path class="cls-1" d="m55.97,20.39C68.92,7.47,87.08.21,105.32.04c18.2-.62,37.13,5.48,49.99,18.71,9.67,9.74,15.15,23.3,15.24,37,.28,7.06-1.8,13.93-2.02,20.96-.24,7.33-.56,14.67-.23,22.01.28,8.69,1.01,17.65-1.86,26.03-4.12,14.16-15.25,25.38-28.51,31.4-.69.31-.67,1.3.02,1.6,5.27,2.25,10.4,4.91,14.91,8.49,8.33,6.46,14.18,15.79,17.19,25.83,3.4,10.91,3.52,22.43,4.38,33.72.4,1.7-.39,3.53-2.2,3.93-15.43,5.06-31.65,7.05-47.75,8.67-29.75,2.48-59.77.92-89.22-3.84-.59-.11-1.18-.26-1.75-.44-1.91-.59-2.35-3.24-.59-4.19.37-.2.8-.29,1.32-.23,6.55-.48,13.15.34,19.68-.35,1.97-1.03,1.71-4,.02-5.16-7.1-1.05-14.58.79-21.49-1.56-3.62-1.49-3.72-7.14-.05-8.63,3.67-1.03,7.58-.15,11.35-.59,1.13-.13,2.11-.96,2.33-2.08.24-1.18.02-2.42-.42-3.58-.29-.77-1.02-1.29-1.84-1.29-2.79-.02-5.57-.01-8.36-.04-1.78-.02-3.15-1.58-2.92-3.35s.46-3.44.71-5.15c-2.68-.33-6.25.44-9-.34-2.15-.61-3.36-2.91-2.79-5.07h0c.3-1.14,1.33-1.95,2.51-1.96,3.6-.04,7.2,0,10.8.02,1.62-4.68,3.64-9.19,6.1-13.48-10.89-.07-21.79.14-32.67-.26-.62.08-1.21-.03-1.72-.27-2.72-1.25-1.88-5.35,1.08-5.75.59-.08,1.19-.12,1.79-.15,12.41-.41,24.84-.18,37.26-.47,4.29-4.12,9.03-7.83,14.51-10.23-2.61.08-5.24.28-7.85.18-2.38-.08-4.15-2.43-3.29-4.65.35-.91,1.07-1.61,2.25-1.78,7-.43,14.04-.09,21.04-.56.7-1.5,1.41-3.01,2.12-4.5-1.92-1.7-3.85-3.39-5.78-5.07-7.77-.04-15.55-.12-23.31.29-2.67.04-5.37.23-7.99-.31-1.98-.41-2.96-3.02-1.79-4.65,1.03-2.09,3.73-1.92,5.7-2.01,7.1,0,14.21-.03,21.31.03-2.21-3.12-4.42-6.26-6.41-9.53-10.93-2.35-18.63-12.16-21.07-22.67-1.91-7.16-1.57-15.65,3.76-21.3-1.34-5.74-2.17-11.58-2.69-17.44-8.28,0-16.58.18-24.86-.06-1.93,0-2.43-.18-3.12-1.52-.56-1.07-.45-2.76.25-3.74l.02-.03c.56-.78,1.46-1.26,2.42-1.27,8.47-.12,16.94-.03,25.42-.11,1.29-14.71,8.14-28.6,18.72-38.85Zm28.49,16.94c-2.16,7.44-6.71,13.95-12.64,18.88-2.61,1.65-2.15,4.94-2.48,7.6-.52,8.34-.82,16.75-2.51,24.95-.35,2.01-1.95,3.39-3.29,4.78-2.54-2.47-4.54-5.64-7.8-7.24-3.18-1.74-7.21-2.5-10.42-.44-4.44,2.05-5.78,7.38-5.49,11.86.51,7.08,3.52,13.98,8.22,19.27,2.9,3.33,7.19,4.75,11.3,5.93,1.43.38,1.86,2.06,2.69,3.14,6.37,11.58,16.84,20.69,28.86,26.08,15.66,6.82,34.49,6.16,49.46-2.19,10.92-5.87,19.45-16.22,22.58-28.28,1.72-6.14,1.63-12.59,1.15-18.9-1.06-14.59.77-29.25-.53-43.82-.56-6.52-3.22-13.08-8.94-16.7-9.29,4.98-19.92,6.83-30.39,6.73-14,.31-28.54-2.94-39.77-11.65Zm-5.64,115.16c-.41.96-.82,1.93-1.23,2.9-.26.61-.11,1.31.37,1.76,5.16,4.91,10.44,9.88,17.03,12.8,7.47,3.44,16.38,6.16,24.38,2.98,4.31-1.94,5.91-6.49,6.27-10.9.08-1.03-.81-1.85-1.82-1.68-14.84,2.43-30.48-.43-43.27-8.39-.62-.38-1.43-.15-1.72.52Zm-36.57,40.62c-.07.32-.12.64-.18.96-.24,1.48.91,2.81,2.41,2.84,4.24.08,8.5.27,12.73-.11,2.85-.21,2.98-5.61.04-5.65-4.23-.21-8.48-.32-12.7-.03-1.12.08-2.07.89-2.3,1.98Z"/>
      <path class="cls-1" d="m97.39,70.91c4.36-1.9,9.23-2.96,13.99-2.3,1.1.09,2.01.59,2.83,1.24,1.64,1.31.82,3.98-1.26,4.2-1.78.19-3.86-.37-5.67-.24-4.07-.1-7.72,1.73-11.23,3.59-.95.5-2.11.29-2.85-.48,0,0-.02-.02-.02-.02-.77-.81-.87-2.08-.21-2.99,1.04-1.42,2.87-2.23,4.42-3Z"/>
      <path class="cls-1" d="m140.22,75c-2.74-2.38.56-5.58,3.2-6.01,5.22-1.04,11.09.07,15.21,3.56,1.14.76.96,1.8.47,2.83-.58,1.23-2.1,1.71-3.31,1.09-2.37-1.19-4.71-2.53-7.41-2.55-2.78-.25-5.45.69-8.16,1.07Z"/>
      <path class="cls-1" d="m46.87,93.68s0-.02,0-.03c.23-.79.96-1.34,1.78-1.33,6.57.09,12.09,5.18,13.64,11.43.38,1.54-1.42,2.74-2.69,1.79-2-1.5-2.74-4.69-4.76-6.43-1.78-1.82-4.25-2.51-6.67-3.12-1.01-.26-1.6-1.3-1.31-2.3Z"/>
      <path class="cls-1" d="m93.01,94.59s.02-.05.03-.07c.58-1.26,2.12-1.74,3.34-1.08,3.28,1.8,6.7,3.73,10.52,2.97.19-.04.38-.1.55-.18,1.38-.61,2.63-1.5,3.94-2.24,1.75-.97,3.91.45,3.59,2.43-.08.52-.29,1-.71,1.42-3.35,4.14-9.52,4.47-14.29,3.08-.07-.02-.13-.04-.19-.06-2.35-.84-5.03-1.83-6.53-3.88-.51-.69-.61-1.61-.25-2.39Z"/>
      <path class="cls-1" d="m137.42,92.99l.75-.66c1.46-.91,6.06,3.96,9.65,4.19.28.02.57-.03.84-.13,1.84-.68,3.45-1.85,5.19-2.75,1.38-.71,3.09.24,3.08,1.79-.01,1.83-1.71,3.8-3.43,4.58-5.09,3.26-11.68,1.14-15.84-2.65-1.29-1.01-1.55-3.31-.24-4.37Z"/>
      <path class="cls-1" d="m130.04,114.82c2.37-.87,4.46-2.24,6.41-3.82,1.04-.84,2.63-.57,3.25.61.4.77.55,1.58-.06,2.43-1.62,3.36-5.15,4.78-8.65,4.58-1.5-.09-2.6-1.58-1.99-2.95.18-.41.49-.73,1.04-.86Z"/>
      <path class="cls-1" d="m110.94,125.35c.07-.07.15-.15.24-.23.68-.66,1.68-.9,2.57-.57,3.56,1.31,6.74,3.72,10.68,3.8,3.8.55,7.24-1.14,10.66-2.53,1.58-.64,3.44.45,3.41,2.16-.01.71-.33,1.42-1.02,1.93-7.47,5.41-18.22,4.5-25.54-.74-1.33-.8-1.84-2.49-.99-3.81Z"/>
      <path class="cls-1" d="m22.23,159.95c-3.53-.24-3.92-6.25.02-6.23,6.04-.43,12.18-.62,18.24-.21,1.85.13,3.28,1.78,3.04,3.61,0,.02,0,.05,0,.07-.22,1.59-1.63,2.77-3.24,2.77-6.02.02-12.04.26-18.06-.02Z"/>
      <path class="cls-1" d="m0,209.78c0-2.08,1.26-2.37,2.39-2.73,4.92-.82,9.94-.26,14.91-.45,2.17.08,5.04-.38,6.38,1.8,0,0,0,0,0,.01h0c.67,2.49-1.16,4.98-3.73,5.04-5.23.13-10.47-.29-15.71-.3-1.95.04-4.24-1.47-4.24-3.37Z"/>
    </g>
  </g>
</svg>