<?xml version="1.0" encoding="UTF-8"?>
<svg id="Capa_2" data-name="Capa 2" xmlns="http://www.w3.org/2000/svg" viewBox="0 0 207.18 234.58">
  <defs>
    <style>
      .cls-1 {
        fill: #654c43;
        stroke-width: 0px;
      }
    </style>
  </defs>
  <g id="Layer_1" data-name="Layer 1">
    <g>
      <path class="cls-1" d="m64.85,7.37c23.89-11.92,54.65-9.38,75.49,7.62,4.76,4.33,10.61,7.27,15.09,11.93,3.97,3.72,7.09,8.21,9.62,13.01,0,0,0,.01.02.01,7.26.26,14.62-.62,21.82.48,0,0,.01,0,.01,0,1.6,2.11.78,5.44-2.09,5.77-5.79.76-11.66.26-17.48.44-.01,0-.02.01-.02.03,2.42,8.87,2.44,18.17,1.34,27.24,0,.01,0,.02.02.02,5.42.08,10.86-.18,16.28.05,3.54-.38,4.35,5.88.95,6.48-6.08.49-12.19-.02-18.28.22-.01,0-.02.01-.02.02.53,4.59,1.85,9.13,1.47,13.79-.78,9.61-5.57,18.93-13.25,24.83-2.77,2.13-6.11,3.22-9.5,3.89-.77.15-1.44.62-1.85,1.28-.88,1.4-1.72,2.82-2.52,4.27-.36.65-1.04,1.05-1.78,1.06h-.04c-1.41,0-2.4-1.38-1.95-2.72,1.35-3.97,3.18-8.28,7.74-8.7,6.06-.61,10.58-5.28,13.64-10.2,3.47-5.87,5.87-12.95,4.12-19.78-.92-4.04-4.07-7.66-8.29-8.28-5.64-1.04-11.06,2.3-14.55,6.51-.92,1.64-2.58.3-3.55-.55-2.78-3.19-3.03-7.65-3.59-11.64-.85-7.34-2.21-15.02-6.72-21.09-3.34-4.96-8.05-8.75-12.93-12.1-.02-.01-.04,0-.03.02,1.06,2.95,2.37,5.84,3.18,8.87.26.97-.41,1.96-1.41,2.06-1.94.19-3.9.15-5.8-.29-8.91-1.84-17.4-5.35-25.32-9.77-.02-.01-.04.01-.03.03,1.77,2.72,3.93,5.26,5.19,8.29.45,1.07-.43,2.25-1.59,2.14-11.28-1.02-21.09-8.14-28.36-16.48,0,0-.02,0-.03,0-6.85,5.36-12.82,12.17-15.8,20.47-2.84,7.24-3.64,15.09-3.59,22.83.29,9.69-1.89,19.36-.6,29.04,1.44,13.95,9.8,26.87,21.74,34.16,13.58,8.24,30.75,9.99,45.82,5.09,1.02-.33,2.13.13,2.58,1.11l.02.04c.48,1.06,0,2.31-1.05,2.78-7.13,3.15-15.19,3.4-22.88,3.26-.01,0-.02.01-.02.02.78,3.96,2.84,8.17,7.17,9.12,13.3,3.35,26.53-4.23,35.02-14.2.96-1.12,2.46-1.6,3.89-1.26,5.19,1.24,10.31,2.78,15.2,4.95h.02c1.14-1.46,2.88-2.31,4.72-2.34,5.96-.08,11.94-.25,17.9.02,3.48-.32,4.29,5.68.84,6.14-5.36.79-10.81.26-16.21.36-.02,0-.03.02-.01.04,3.57,3.16,6.94,6.54,10.04,10.18,0,0,0,0,.01,0,7.04.21,14.12-.36,21.14.32,1.26.06,2.11.74,2.56,1.66,1.04,2.12-.59,4.6-2.95,4.72-5.61.3-11.25-.09-16.86.11-.01,0-.02.01-.02.03,1.23,3.41,2.75,6.72,3.71,10.23.62,1.94-1.57,3.51-3.3,3.62-7.04.36-14.1-.18-21.14.15-3.13-.31-3.84,5.16-.86,5.81,7.28.49,14.61-.22,21.9.18,2.72.12,5.05,2.99,4.32,5.69v.02c-.52,2.1-2.39,3.59-4.55,3.61-2.43.03-4.86.01-7.29.03-1.76,0-3.37,1.06-3.98,2.71-.48,1.3-.64,2.61.52,3.74,3.87,3.26,9.89-.01,13.79,3.11,3.26,2.71-.08,7.71-3.71,7.7-8.68.56-17.41-.08-26.1.29-2.33-.38-3.19,3.19-1.81,4.63.73,1.29,2.52.73,3.73.97,4.24.05,8.5-.09,12.75-.03.96.01,1.77.71,1.95,1.65h0c.21,1.1-.52,2.18-1.63,2.37-13.19,2.32-26.62,2.74-39.97,3.29-18.02.21-36.14-.68-53.84-4.19-2.17-.46-4.36-.89-6.34-1.89,0,0-.01,0-.01-.02-.6-4.34.11-8.72.36-13.06.73-7.28,1.03-14.6,1.3-21.91,0-.01-.01-.02-.03-.02-8.97,3.47-19.84,5.28-28.43-.11-8.65-5.03-12.13-15.09-14.7-24.18-1.04-3.1-1.06-6.94-3.86-9.09-3.38-2.95-6.85-5.99-8.94-10.03-4.33-8.22-2.68-19.39,4.46-25.54,4.55-3.74,7.67-9.87,13.97-10.9,5.18-.7,9.06,3.53,11.68,7.42h0c2.96,3.36,6.85,6.1,8.31,10.55,2.49,6.2,1.21,13.19-1.85,18.94,0,0,0,.02,0,.02,3.07,4.17,6.61,7.98,9.66,12.18,0,0,.02.01.03,0,6.07-4.7,12.65-8.87,19.88-11.59.02,0,.02-.03,0-.04-11.49-4.53-21.58-12.88-27.3-23.91-4.01-7.24-5.69-15.54-6.17-23.73h0c.03-9.97,2.1-19.98.46-29.91-1.77-12.18.45-24.84,6.31-35.65,0,0,0-.02,0-.03-3.63-2.36-8-4.14-10.26-8.05-1.02-1.9-1.82-4.25-1.02-6.37.81-1.58,2.81-1.54,4.29-1.94,11.27-1.57,19.95-9.58,30.03-14.14ZM20.06,118.69c-4.05,2.05-6.19,6.38-9.7,9.14-5.33,4.11-7.21,11.7-4.8,17.92,2.48,6.35,8.38,10.26,13.04,14.9,0,0,.01,0,.02,0,4.25-.41,8.58-1.61,11.78-4.58,3.55-2.72,4.06-7.46,5.87-11.27,2.63-5.65,1.33-13.64-4.4-16.84,0,0,0,0-.01,0-3.09.29-5.52,2.36-6.3,5.13-.42,1.52.8,3.01,2.38,2.86,2.26-.21,4.64-.42,5.6,1.92h0c-.27,3.78-4.86,3.78-7.84,4.89-.63.23-1.1.76-1.32,1.4-.63,1.89-.9,3.91-1.81,5.7l-.25.4c-2.11,2.76-6.98,3.21-9.22.42l-.34-.6c-.18-.51-.26-1.04-.31-1.58-.1-1.27.85-2.38,2.12-2.46.03,0,.06,0,.08,0,2.17-.14,2.93-2.93,1.12-4.13-.94-.62-1.88-1.24-2.8-1.89-1.06-.75-1.24-2.27-.4-3.26.88-1.04,1.89-1.9,3.4-1.52.36.14.7.3,1.04.48,1.93,1.02,4.06-.99,3.1-2.95s-2.17-3.61-3.43-5.32c-.75-1.02-.53-2.46.51-3.18.53-.36,1.08-.66,1.72-.79,1.49-.24,2.55.65,3.53,1.63.77.77,1.98.84,2.87.22.37-.26.75-.53,1.12-.79,1.16-.8,1.35-2.31.41-3.36-1.78-2-4.01-3.71-6.8-2.5Zm111.78,92.6c5.53-.05,11.11.38,16.61-.15,1.97-.19,3.43-2.06,3-4-.05-.23-.12-.46-.21-.69-.58-1.49-2.08-2.4-3.68-2.37-5.88.14-11.79-.36-17.64.22,0,0,0,0,0,0-4.49,1.16-2.91,6.98,1.92,6.98Z"/>
      <path class="cls-1" d="m177.29,58c8.14-.94,16.41-.68,24.6-1,1.91-.03,4.98-.21,5.18,2.41.67,2.55-1.78,4.56-4.19,4.3-8.34.11-16.69.06-25.03.14-3.22.15-3.47-5.18-.56-5.85Z"/>
      <path class="cls-1" d="m107.2,66.88c3.05-2.27,6.52,3.07,3.18,4.96-6.16,3.64-12.17,7.62-18.52,10.93-3.08,1.59-5.81-3.34-2.72-5.03,5.88-3.83,11.95-7.41,18.06-10.86Z"/>
      <path class="cls-1" d="m50.07,67.51c1.84-1.42,3.94.24,5.53,1.23,3.73,2.59,7.54,5.09,11.18,7.83.66.38,1.09.97,1.29,1.64.76,2.5-2.08,4.66-4.39,3.44-.87-.46-1.69-1.09-2.47-1.55-3.7-2.69-7.58-5.14-11.21-7.94-1.55-.93-1.44-3.8.07-4.65Z"/>
      <path class="cls-1" d="m52.12,84.82c1.46-.68,3,.55,4.43.91,2.38,1.1,5.12,1.8,7.25,3.37,1.22.9,1.74,2.57,1.07,3.92-.51,1.04-1.54,1.68-3.01,1.29-3.66-1.01-7.23-2.52-10.5-4.43-2.15-1.13-1.3-4.35.76-5.07Z"/>
      <path class="cls-1" d="m102.35,84.66c.36-.2.73-.33,1.09-.4,3.37-.69,4.87,4.16,1.81,5.73-2.83,1.45-6,2.22-9.02,3.14-.81.35-1.65.24-2.37-.13-2.18-1.14-1.96-4.36.27-5.39,2.47-1.14,5.14-1.85,7.72-2.72.17-.06.34-.14.5-.23Z"/>
      <path class="cls-1" d="m141.98,99.58c.68-6.9,6.91-12.67,13.82-12.99.77-.04,1.47.44,1.73,1.16,0,.02.02.05.03.07.36.98-.2,2.05-1.21,2.31-2.17.56-4.36,1.17-6.13,2.6-2.48,1.97-3.6,4.98-4.88,7.79-.83,1.83-3.55,1.05-3.35-.94Z"/>
      <path class="cls-1" d="m68.25,106.25c-2.1-4.14,1.65-8.52,5.7-9.23,1.22-.43,2.31.33,2.96,1.35.51.8.54,1.85-.04,2.59-.5.64-1.26,1.06-2.05,1.44-1.08.52-1.55,1.8-1.1,2.9v.03c.28.65.24,1.38-.1,1.98h0c-.59,1.06-1.86,1.57-3.01,1.18s-2.07-.94-2.37-2.24Z"/>
      <path class="cls-1" d="m77.4,112.36c5.92-1.31,12.55-.68,17.56,2.97,4.56,3,8.49,8.35,7.42,14.08-.64,3.33-4.32,5.27-7.51,4.72-4.7-.73-9.19-2.85-14.03-2.58-4.71-.04-9.21,2.47-13.94,1.59-3.78-.84-4.88-5.43-4.03-8.74,1.5-6.7,8.22-10.72,14.53-12.04Z"/>
      <path class="cls-1" d="m128.93,140.95c-3.58.18-3.41-5.93.05-5.89,7.96-.54,15.95-.25,23.92-.3,1.64.07,3.47-.08,5.06.4,1.36.41,2.19,1.78,2.01,3.19,0,.01,0,.03,0,.04-.19,1.41-1.39,2.47-2.81,2.5-9.4.23-18.82.15-28.23.05Z"/>
    </g>
  </g>
</svg>